<svg id="visual" viewBox="0 0 960 540" width="960" height="540" xmlns="http://www.w3.org/2000/svg" xmlns:xlink="http://www.w3.org/1999/xlink" version="1.1"><rect x="0" y="0" width="960" height="540" fill="#ffffff"></rect><defs><linearGradient id="grad1_0" x1="43.8%" y1="0%" x2="100%" y2="100%"><stop offset="14.444444444444446%" stop-color="#619657" stop-opacity="1"></stop><stop offset="85.55555555555554%" stop-color="#619657" stop-opacity="1"></stop></linearGradient></defs><defs><linearGradient id="grad1_1" x1="43.8%" y1="0%" x2="100%" y2="100%"><stop offset="14.444444444444446%" stop-color="#619657" stop-opacity="1"></stop><stop offset="85.55555555555554%" stop-color="#afcaa8" stop-opacity="1"></stop></linearGradient></defs><defs><linearGradient id="grad1_2" x1="43.8%" y1="0%" x2="100%" y2="100%"><stop offset="14.444444444444446%" stop-color="#ffffff" stop-opacity="1"></stop><stop offset="85.55555555555554%" stop-color="#afcaa8" stop-opacity="1"></stop></linearGradient></defs><defs><linearGradient id="grad2_0" x1="0%" y1="0%" x2="56.3%" y2="100%"><stop offset="14.444444444444446%" stop-color="#619657" stop-opacity="1"></stop><stop offset="85.55555555555554%" stop-color="#619657" stop-opacity="1"></stop></linearGradient></defs><defs><linearGradient id="grad2_1" x1="0%" y1="0%" x2="56.3%" y2="100%"><stop offset="14.444444444444446%" stop-color="#afcaa8" stop-opacity="1"></stop><stop offset="85.55555555555554%" stop-color="#619657" stop-opacity="1"></stop></linearGradient></defs><defs><linearGradient id="grad2_2" x1="0%" y1="0%" x2="56.3%" y2="100%"><stop offset="14.444444444444446%" stop-color="#afcaa8" stop-opacity="1"></stop><stop offset="85.55555555555554%" stop-color="#ffffff" stop-opacity="1"></stop></linearGradient></defs><g transform="translate(960, 0)"><path d="M0 459C-55.3 428.4 -110.6 397.8 -150.8 364C-190.9 330.2 -216 293.1 -265.2 265.2C-314.4 237.2 -387.7 218.3 -424.1 175.7C-460.4 133 -459.7 66.5 -459 0L0 0Z" fill="#d7e4d3"></path><path d="M0 306C-36.9 285.6 -73.7 265.2 -100.5 242.7C-127.3 220.1 -144 195.4 -176.8 176.8C-209.6 158.1 -258.5 145.6 -282.7 117.1C-306.9 88.6 -306.5 44.3 -306 0L0 0Z" fill="#88b07f"></path><path d="M0 153C-18.4 142.8 -36.9 132.6 -50.3 121.3C-63.6 110.1 -72 97.7 -88.4 88.4C-104.8 79.1 -129.2 72.8 -141.4 58.6C-153.5 44.3 -153.2 22.2 -153 0L0 0Z" fill="#619657"></path></g><g transform="translate(0, 540)"><path d="M0 -459C64.9 -452.3 129.9 -445.5 169.5 -409.3C209.2 -373 223.5 -307.3 268 -268C312.5 -228.7 387.2 -215.9 424.1 -175.7C460.9 -135.4 460 -67.7 459 0L0 0Z" fill="#d7e4d3"></path><path d="M0 -306C43.3 -301.5 86.6 -297 113 -272.9C139.4 -248.7 149 -204.9 178.7 -178.7C208.3 -152.5 258.1 -143.9 282.7 -117.1C307.3 -90.3 306.6 -45.1 306 0L0 0Z" fill="#88b07f"></path><path d="M0 -153C21.6 -150.8 43.3 -148.5 56.5 -136.4C69.7 -124.3 74.5 -102.4 89.3 -89.3C104.2 -76.2 129.1 -72 141.4 -58.6C153.6 -45.1 153.3 -22.6 153 0L0 0Z" fill="#619657"></path></g></svg>