<svg id="visual" viewBox="0 0 960 540" width="960" height="540" xmlns="http://www.w3.org/2000/svg" xmlns:xlink="http://www.w3.org/1999/xlink" version="1.1"><path d="M0 94L17.8 94C35.7 94 71.3 94 106.8 88.8C142.3 83.7 177.7 73.3 213.2 65.8C248.7 58.3 284.3 53.7 320 54.2C355.7 54.7 391.3 60.3 426.8 68C462.3 75.7 497.7 85.3 533.2 91.8C568.7 98.3 604.3 101.7 640 104.3C675.7 107 711.3 109 746.8 102.5C782.3 96 817.7 81 853.2 81C888.7 81 924.3 96 942.2 103.5L960 111L960 0L942.2 0C924.3 0 888.7 0 853.2 0C817.7 0 782.3 0 746.8 0C711.3 0 675.7 0 640 0C604.3 0 568.7 0 533.2 0C497.7 0 462.3 0 426.8 0C391.3 0 355.7 0 320 0C284.3 0 248.7 0 213.2 0C177.7 0 142.3 0 106.8 0C71.3 0 35.7 0 17.8 0L0 0Z" fill="#619657" stroke-linecap="round" stroke-linejoin="miter"></path></svg>