<svg id="visual" viewBox="0 0 900 600" width="900" height="600" xmlns="http://www.w3.org/2000/svg" xmlns:xlink="http://www.w3.org/1999/xlink" version="1.1"><path d="M0 67L30 66C60 65 120 63 180 70C240 77 300 93 360 98C420 103 480 97 540 96C600 95 660 99 720 100C780 101 840 99 870 98L900 97L900 0L870 0C840 0 780 0 720 0C660 0 600 0 540 0C480 0 420 0 360 0C300 0 240 0 180 0C120 0 60 0 30 0L0 0Z" fill="#619657"></path><path d="M0 223L30 223C60 223 120 223 180 227C240 231 300 239 360 251C420 263 480 279 540 290C600 301 660 307 720 303C780 299 840 285 870 278L900 271L900 95L870 96C840 97 780 99 720 98C660 97 600 93 540 94C480 95 420 101 360 96C300 91 240 75 180 68C120 61 60 63 30 64L0 65Z" fill="#558a4c"></path><path d="M0 289L30 286C60 283 120 277 180 279C240 281 300 291 360 303C420 315 480 329 540 345C600 361 660 379 720 381C780 383 840 369 870 362L900 355L900 269L870 276C840 283 780 297 720 301C660 305 600 299 540 288C480 277 420 261 360 249C300 237 240 229 180 225C120 221 60 221 30 221L0 221Z" fill="#4a7f41"></path><path d="M0 373L30 377C60 381 120 389 180 395C240 401 300 405 360 411C420 417 480 425 540 439C600 453 660 473 720 476C780 479 840 465 870 458L900 451L900 353L870 360C840 367 780 381 720 379C660 377 600 359 540 343C480 327 420 313 360 301C300 289 240 279 180 277C120 275 60 281 30 284L0 287Z" fill="#3f7336"></path><path d="M0 601L30 601C60 601 120 601 180 601C240 601 300 601 360 601C420 601 480 601 540 601C600 601 660 601 720 601C780 601 840 601 870 601L900 601L900 449L870 456C840 463 780 477 720 474C660 471 600 451 540 437C480 423 420 415 360 409C300 403 240 399 180 393C120 387 60 379 30 375L0 371Z" fill="#33682c"></path></svg>