<svg id="visual" viewBox="0 0 960 540" width="960" height="540" xmlns="http://www.w3.org/2000/svg" xmlns:xlink="http://www.w3.org/1999/xlink" version="1.1"><path d="M0 39L320 39L640 28L960 17L960 0L640 0L320 0L0 0Z" fill="#90c784"></path><path d="M0 82L320 104L640 125L960 87L960 15L640 26L320 37L0 37Z" fill="#84bb78"></path><path d="M0 120L320 141L640 152L960 104L960 85L640 123L320 102L0 80Z" fill="#78ae6d"></path><path d="M0 141L320 185L640 190L960 152L960 102L640 150L320 139L0 118Z" fill="#6da262"></path><path d="M0 293L320 330L640 357L960 298L960 150L640 188L320 183L0 139Z" fill="#619657"></path><path d="M0 330L320 395L640 401L960 368L960 296L640 355L320 328L0 291Z" fill="#558a4c"></path><path d="M0 460L320 455L640 492L960 449L960 366L640 399L320 393L0 328Z" fill="#4a7f41"></path><path d="M0 498L320 476L640 509L960 476L960 447L640 490L320 453L0 458Z" fill="#3e7336"></path><path d="M0 541L320 541L640 541L960 541L960 474L640 507L320 474L0 496Z" fill="#33682c"></path></svg>