<svg id="visual" viewBox="0 0 960 540" width="960" height="540" xmlns="http://www.w3.org/2000/svg" xmlns:xlink="http://www.w3.org/1999/xlink" version="1.1"><rect x="0" y="0" width="960" height="540" fill="#ffffff"></rect><g transform="translate(479.8128448053493 308.1084475905009)"><path d="M152.6 -236.2C214 -198 291.2 -183.1 313.3 -141.2C335.3 -99.3 302.3 -30.3 280.1 31.7C257.8 93.7 246.4 148.7 216.4 192.9C186.5 237.2 137.9 270.7 86.6 278.1C35.2 285.6 -18.9 267.1 -76.6 253.5C-134.3 239.9 -195.6 231.3 -230.5 196.6C-265.3 162 -273.7 101.3 -289.9 37.2C-306 -26.8 -329.9 -94.2 -316 -152.4C-302 -210.6 -250.2 -259.7 -191.3 -298.9C-132.3 -338.2 -66.1 -367.6 -10.3 -351.6C45.6 -335.7 91.2 -274.3 152.6 -236.2" fill="#619657"></path></g></svg>