<svg id="visual" viewBox="0 0 960 540" width="960" height="540" xmlns="http://www.w3.org/2000/svg" xmlns:xlink="http://www.w3.org/1999/xlink" version="1.1"><g stroke-width="1" stroke-linejoin="bevel"><path d="M489 303.6L430 355.6L539 444.7Z" fill="#417639" stroke="#417639"></path><path d="M539 444.7L580 345.7L489 303.6Z" fill="#5c9153" stroke="#5c9153"></path><path d="M539 444.7L592 358.6L580 345.7Z" fill="#417639" stroke="#417639"></path><path d="M592 358.6L584 331.6L580 345.7Z" fill="#5c9153" stroke="#5c9153"></path><path d="M580 345.7L584 331.6L489 303.6Z" fill="#386d30" stroke="#386d30"></path><path d="M430 355.6L423 447.9L539 444.7Z" fill="#588d4e" stroke="#588d4e"></path><path d="M430 355.6L414 437.7L423 447.9Z" fill="#3c7134" stroke="#3c7134"></path><path d="M338 412.9L389 448.9L414 437.7Z" fill="#3c7134" stroke="#3c7134"></path><path d="M414 437.7L389 448.9L423 447.9Z" fill="#33682c" stroke="#33682c"></path><path d="M423 447.9L503 540L539 444.7Z" fill="#457a3d" stroke="#457a3d"></path><path d="M539 444.7L651 381.7L592 358.6Z" fill="#53884a" stroke="#53884a"></path><path d="M592 358.6L651 381.7L584 331.6Z" fill="#53884a" stroke="#53884a"></path><path d="M509 214.3L479 225.4L489 303.6Z" fill="#588d4e" stroke="#588d4e"></path><path d="M489 303.6L378 207.3L430 355.6Z" fill="#3c7134" stroke="#3c7134"></path><path d="M430 355.6L338 412.9L414 437.7Z" fill="#33682c" stroke="#33682c"></path><path d="M509 214.3L489 303.6L584 331.6Z" fill="#417639" stroke="#417639"></path><path d="M409 540L503 540L423 447.9Z" fill="#4a7f41" stroke="#4a7f41"></path><path d="M539 444.7L603 521.9L651 381.7Z" fill="#53884a" stroke="#53884a"></path><path d="M503 540L530 540L539 444.7Z" fill="#4a7f41" stroke="#4a7f41"></path><path d="M616 223.4L509 214.3L584 331.6Z" fill="#588d4e" stroke="#588d4e"></path><path d="M283 308.6L338 412.9L430 355.6Z" fill="#386d30" stroke="#386d30"></path><path d="M389 448.9L409 540L423 447.9Z" fill="#4a7f41" stroke="#4a7f41"></path><path d="M338 412.9L340 428.7L389 448.9Z" fill="#33682c" stroke="#33682c"></path><path d="M651 381.7L638 271.4L584 331.6Z" fill="#3c7134" stroke="#3c7134"></path><path d="M584 540L603 521.9L539 444.7Z" fill="#386d30" stroke="#386d30"></path><path d="M530 540L584 540L539 444.7Z" fill="#5c9153" stroke="#5c9153"></path><path d="M290 540L409 540L389 448.9Z" fill="#3c7134" stroke="#3c7134"></path><path d="M638 271.4L616 223.4L584 331.6Z" fill="#588d4e" stroke="#588d4e"></path><path d="M697 492.9L703 396.7L651 381.7Z" fill="#386d30" stroke="#386d30"></path><path d="M651 381.7L745 267.6L638 271.4Z" fill="#53884a" stroke="#53884a"></path><path d="M685 179.4L600 166.3L616 223.4Z" fill="#588d4e" stroke="#588d4e"></path><path d="M383 110.1L378 207.3L479 225.4Z" fill="#4a7f41" stroke="#4a7f41"></path><path d="M479 225.4L378 207.3L489 303.6Z" fill="#457a3d" stroke="#457a3d"></path><path d="M338 412.9L297 435.7L340 428.7Z" fill="#4a7f41" stroke="#4a7f41"></path><path d="M340 428.7L290 540L389 448.9Z" fill="#619657" stroke="#619657"></path><path d="M256 353.6L297 435.7L338 412.9Z" fill="#4a7f41" stroke="#4a7f41"></path><path d="M378 207.3L356 210.4L430 355.6Z" fill="#4f8445" stroke="#4f8445"></path><path d="M743 540L697 492.9L603 521.9Z" fill="#4a7f41" stroke="#4a7f41"></path><path d="M603 521.9L697 492.9L651 381.7Z" fill="#53884a" stroke="#53884a"></path><path d="M356 210.4L283 308.6L430 355.6Z" fill="#4a7f41" stroke="#4a7f41"></path><path d="M685 179.4L616 223.4L638 271.4Z" fill="#33682c" stroke="#33682c"></path><path d="M616 223.4L600 166.3L509 214.3Z" fill="#3c7134" stroke="#3c7134"></path><path d="M509 214.3L520 100.1L479 225.4Z" fill="#619657" stroke="#619657"></path><path d="M378 207.3L383 110.1L356 210.4Z" fill="#3c7134" stroke="#3c7134"></path><path d="M383 110.1L335 213.4L356 210.4Z" fill="#4a7f41" stroke="#4a7f41"></path><path d="M356 210.4L335 213.4L283 308.6Z" fill="#619657" stroke="#619657"></path><path d="M201 412.9L132 361.6L172 410.7Z" fill="#588d4e" stroke="#588d4e"></path><path d="M283 308.6L256 353.6L338 412.9Z" fill="#33682c" stroke="#33682c"></path><path d="M743 540L736 478.9L697 492.9Z" fill="#417639" stroke="#417639"></path><path d="M697 492.9L736 478.9L703 396.7Z" fill="#386d30" stroke="#386d30"></path><path d="M736 478.9L765 389.7L703 396.7Z" fill="#457a3d" stroke="#457a3d"></path><path d="M703 396.7L745 267.6L651 381.7Z" fill="#619657" stroke="#619657"></path><path d="M765 389.7L745 267.6L703 396.7Z" fill="#386d30" stroke="#386d30"></path><path d="M297 435.7L290 540L340 428.7Z" fill="#4f8445" stroke="#4f8445"></path><path d="M260 540L290 540L297 435.7Z" fill="#4a7f41" stroke="#4a7f41"></path><path d="M745 267.6L685 179.4L638 271.4Z" fill="#3c7134" stroke="#3c7134"></path><path d="M685 179.4L612 127.3L600 166.3Z" fill="#619657" stroke="#619657"></path><path d="M600 166.3L520 100.1L509 214.3Z" fill="#4f8445" stroke="#4f8445"></path><path d="M612 127.3L520 100.1L600 166.3Z" fill="#386d30" stroke="#386d30"></path><path d="M745 267.6L752 253.6L685 179.4Z" fill="#588d4e" stroke="#588d4e"></path><path d="M797 285.4L752 253.6L745 267.6Z" fill="#4f8445" stroke="#4f8445"></path><path d="M584 540L743 540L603 521.9Z" fill="#417639" stroke="#417639"></path><path d="M736 478.9L815 410.9L765 389.7Z" fill="#619657" stroke="#619657"></path><path d="M201 412.9L260 540L297 435.7Z" fill="#33682c" stroke="#33682c"></path><path d="M520 100.1L383 110.1L479 225.4Z" fill="#386d30" stroke="#386d30"></path><path d="M202 250.4L256 353.6L283 308.6Z" fill="#3c7134" stroke="#3c7134"></path><path d="M520 100.1L379 102.3L383 110.1Z" fill="#33682c" stroke="#33682c"></path><path d="M383 110.1L266 136.1L335 213.4Z" fill="#4f8445" stroke="#4f8445"></path><path d="M202 250.4L283 308.6L335 213.4Z" fill="#386d30" stroke="#386d30"></path><path d="M256 353.6L201 412.9L297 435.7Z" fill="#3c7134" stroke="#3c7134"></path><path d="M765 389.7L797 285.4L745 267.6Z" fill="#588d4e" stroke="#588d4e"></path><path d="M760 151.3L711 121.1L685 179.4Z" fill="#417639" stroke="#417639"></path><path d="M845 326.6L797 285.4L765 389.7Z" fill="#5c9153" stroke="#5c9153"></path><path d="M812 540L815 410.9L736 478.9Z" fill="#457a3d" stroke="#457a3d"></path><path d="M266 136.1L202 250.4L335 213.4Z" fill="#457a3d" stroke="#457a3d"></path><path d="M593 57.1L529 52.1L520 100.1Z" fill="#33682c" stroke="#33682c"></path><path d="M520 100.1L478 0L379 102.3Z" fill="#619657" stroke="#619657"></path><path d="M593 57.1L520 100.1L612 127.3Z" fill="#4a7f41" stroke="#4a7f41"></path><path d="M762 165.3L685 179.4L752 253.6Z" fill="#4f8445" stroke="#4f8445"></path><path d="M685 179.4L711 121.1L612 127.3Z" fill="#4f8445" stroke="#4f8445"></path><path d="M132 361.6L201 412.9L256 353.6Z" fill="#53884a" stroke="#53884a"></path><path d="M201 412.9L165 540L260 540Z" fill="#588d4e" stroke="#588d4e"></path><path d="M711 121.1L593 57.1L612 127.3Z" fill="#619657" stroke="#619657"></path><path d="M797 285.4L762 165.3L752 253.6Z" fill="#588d4e" stroke="#588d4e"></path><path d="M213 117.1L266 136.1L217 0Z" fill="#53884a" stroke="#53884a"></path><path d="M379 102.3L266 136.1L383 110.1Z" fill="#4f8445" stroke="#4f8445"></path><path d="M838 134.3L760 151.3L762 165.3Z" fill="#3c7134" stroke="#3c7134"></path><path d="M762 165.3L760 151.3L685 179.4Z" fill="#417639" stroke="#417639"></path><path d="M815 410.9L845 326.6L765 389.7Z" fill="#588d4e" stroke="#588d4e"></path><path d="M889 176.4L838 134.3L762 165.3Z" fill="#386d30" stroke="#386d30"></path><path d="M743 540L812 540L736 478.9Z" fill="#619657" stroke="#619657"></path><path d="M815 410.9L865 405.9L845 326.6Z" fill="#5c9153" stroke="#5c9153"></path><path d="M862 540L865 405.9L815 410.9Z" fill="#588d4e" stroke="#588d4e"></path><path d="M266 136.1L189 191.4L202 250.4Z" fill="#417639" stroke="#417639"></path><path d="M125 299.6L132 361.6L256 353.6Z" fill="#417639" stroke="#417639"></path><path d="M125 299.6L256 353.6L202 250.4Z" fill="#619657" stroke="#619657"></path><path d="M172 410.7L165 540L201 412.9Z" fill="#588d4e" stroke="#588d4e"></path><path d="M115 437.7L165 540L172 410.7Z" fill="#3c7134" stroke="#3c7134"></path><path d="M564 0L478 0L529 52.1Z" fill="#386d30" stroke="#386d30"></path><path d="M529 52.1L478 0L520 100.1Z" fill="#417639" stroke="#417639"></path><path d="M665 0L564 0L593 57.1Z" fill="#4a7f41" stroke="#4a7f41"></path><path d="M593 57.1L564 0L529 52.1Z" fill="#33682c" stroke="#33682c"></path><path d="M665 0L593 57.1L711 121.1Z" fill="#33682c" stroke="#33682c"></path><path d="M189 191.4L125 299.6L202 250.4Z" fill="#619657" stroke="#619657"></path><path d="M266 136.1L213 117.1L189 191.4Z" fill="#3c7134" stroke="#3c7134"></path><path d="M189 191.4L24 234.4L125 299.6Z" fill="#5c9153" stroke="#5c9153"></path><path d="M354 0L266 136.1L379 102.3Z" fill="#588d4e" stroke="#588d4e"></path><path d="M132 361.6L115 437.7L172 410.7Z" fill="#53884a" stroke="#53884a"></path><path d="M96 456.9L115 437.7L0 430.9Z" fill="#457a3d" stroke="#457a3d"></path><path d="M812 540L862 540L815 410.9Z" fill="#4a7f41" stroke="#4a7f41"></path><path d="M478 0L391 0L379 102.3Z" fill="#33682c" stroke="#33682c"></path><path d="M391 0L354 0L379 102.3Z" fill="#3c7134" stroke="#3c7134"></path><path d="M689 0L665 0L711 121.1Z" fill="#33682c" stroke="#33682c"></path><path d="M0 344.7L115 437.7L132 361.6Z" fill="#386d30" stroke="#386d30"></path><path d="M115 437.7L107 519.9L165 540Z" fill="#588d4e" stroke="#588d4e"></path><path d="M181 0L181 117.3L213 117.1Z" fill="#33682c" stroke="#33682c"></path><path d="M213 117.1L181 117.3L189 191.4Z" fill="#417639" stroke="#417639"></path><path d="M889 176.4L762 165.3L797 285.4Z" fill="#457a3d" stroke="#457a3d"></path><path d="M760 151.3L828 52.1L711 121.1Z" fill="#588d4e" stroke="#588d4e"></path><path d="M889 176.4L797 285.4L845 326.6Z" fill="#4f8445" stroke="#4f8445"></path><path d="M96 456.9L107 519.9L115 437.7Z" fill="#5c9153" stroke="#5c9153"></path><path d="M828 52.1L689 0L711 121.1Z" fill="#457a3d" stroke="#457a3d"></path><path d="M115 62.1L146 133.3L181 117.3Z" fill="#3c7134" stroke="#3c7134"></path><path d="M181 117.3L146 133.3L189 191.4Z" fill="#3c7134" stroke="#3c7134"></path><path d="M0 430.9L71 540L96 456.9Z" fill="#53884a" stroke="#53884a"></path><path d="M960 262.6L889 176.4L845 326.6Z" fill="#457a3d" stroke="#457a3d"></path><path d="M838 134.3L828 52.1L760 151.3Z" fill="#619657" stroke="#619657"></path><path d="M939 408.7L845 326.6L865 405.9Z" fill="#53884a" stroke="#53884a"></path><path d="M960 465.9L939 408.7L865 405.9Z" fill="#53884a" stroke="#53884a"></path><path d="M960 465.9L960 402.7L939 408.7Z" fill="#4a7f41" stroke="#4a7f41"></path><path d="M939 408.7L960 262.6L845 326.6Z" fill="#457a3d" stroke="#457a3d"></path><path d="M0 344.7L132 361.6L125 299.6Z" fill="#5c9153" stroke="#5c9153"></path><path d="M96 456.9L71 540L107 519.9Z" fill="#33682c" stroke="#33682c"></path><path d="M107 519.9L71 540L165 540Z" fill="#4a7f41" stroke="#4a7f41"></path><path d="M936 59.1L828 52.1L838 134.3Z" fill="#417639" stroke="#417639"></path><path d="M862 540L960 465.9L865 405.9Z" fill="#5c9153" stroke="#5c9153"></path><path d="M960 402.7L960 262.6L939 408.7Z" fill="#3c7134" stroke="#3c7134"></path><path d="M889 176.4L960 120.3L838 134.3Z" fill="#53884a" stroke="#53884a"></path><path d="M354 0L217 0L266 136.1Z" fill="#3c7134" stroke="#3c7134"></path><path d="M862 540L960 540L960 465.9Z" fill="#33682c" stroke="#33682c"></path><path d="M115 62.1L78 127.3L146 133.3Z" fill="#4a7f41" stroke="#4a7f41"></path><path d="M146 133.3L24 234.4L189 191.4Z" fill="#386d30" stroke="#386d30"></path><path d="M960 262.6L960 194.4L889 176.4Z" fill="#4f8445" stroke="#4f8445"></path><path d="M217 0L181 0L213 117.1Z" fill="#4a7f41" stroke="#4a7f41"></path><path d="M78 127.3L24 234.4L146 133.3Z" fill="#588d4e" stroke="#588d4e"></path><path d="M181 0L115 62.1L181 117.3Z" fill="#457a3d" stroke="#457a3d"></path><path d="M881 0L831 0L828 52.1Z" fill="#3c7134" stroke="#3c7134"></path><path d="M828 52.1L831 0L689 0Z" fill="#417639" stroke="#417639"></path><path d="M0 273.6L0 344.7L125 299.6Z" fill="#417639" stroke="#417639"></path><path d="M0 344.7L0 430.9L115 437.7Z" fill="#619657" stroke="#619657"></path><path d="M24 234.4L0 273.6L125 299.6Z" fill="#33682c" stroke="#33682c"></path><path d="M0 250.4L0 273.6L24 234.4Z" fill="#457a3d" stroke="#457a3d"></path><path d="M0 111.3L0 250.4L24 234.4Z" fill="#3c7134" stroke="#3c7134"></path><path d="M0 111.3L24 234.4L78 127.3Z" fill="#588d4e" stroke="#588d4e"></path><path d="M960 194.4L960 121.1L889 176.4Z" fill="#4a7f41" stroke="#4a7f41"></path><path d="M960 121.1L960 120.3L889 176.4Z" fill="#4a7f41" stroke="#4a7f41"></path><path d="M0 430.9L0 540L71 540Z" fill="#53884a" stroke="#53884a"></path><path d="M936 59.1L881 0L828 52.1Z" fill="#33682c" stroke="#33682c"></path><path d="M960 120.3L936 59.1L838 134.3Z" fill="#386d30" stroke="#386d30"></path><path d="M181 0L94 0L115 62.1Z" fill="#33682c" stroke="#33682c"></path><path d="M46 38.1L0 111.3L78 127.3Z" fill="#4f8445" stroke="#4f8445"></path><path d="M46 38.1L78 127.3L115 62.1Z" fill="#3c7134" stroke="#3c7134"></path><path d="M94 0L46 38.1L115 62.1Z" fill="#4f8445" stroke="#4f8445"></path><path d="M960 120.3L960 0L936 59.1Z" fill="#33682c" stroke="#33682c"></path><path d="M936 59.1L960 0L881 0Z" fill="#33682c" stroke="#33682c"></path><path d="M0 0L0 35.1L46 38.1Z" fill="#386d30" stroke="#386d30"></path><path d="M46 38.1L0 35.1L0 111.3Z" fill="#3c7134" stroke="#3c7134"></path><path d="M94 0L0 0L46 38.1Z" fill="#619657" stroke="#619657"></path></g></svg>