<svg id="visual" viewBox="0 0 960 540" width="960" height="540" xmlns="http://www.w3.org/2000/svg" xmlns:xlink="http://www.w3.org/1999/xlink" version="1.1"><path d="M0 136L22.8 145.2C45.7 154.3 91.3 172.7 137 164.5C182.7 156.3 228.3 121.7 274 120.8C319.7 120 365.3 153 411.2 163.5C457 174 503 162 548.8 155.3C594.7 148.7 640.3 147.3 686 145C731.7 142.7 777.3 139.3 823 143.7C868.7 148 914.3 160 937.2 166L960 172L960 541L937.2 541C914.3 541 868.7 541 823 541C777.3 541 731.7 541 686 541C640.3 541 594.7 541 548.8 541C503 541 457 541 411.2 541C365.3 541 319.7 541 274 541C228.3 541 182.7 541 137 541C91.3 541 45.7 541 22.8 541L0 541Z" fill="#619657"></path><path d="M0 276L22.8 256.8C45.7 237.7 91.3 199.3 137 194C182.7 188.7 228.3 216.3 274 234.8C319.7 253.3 365.3 262.7 411.2 256C457 249.3 503 226.7 548.8 207.7C594.7 188.7 640.3 173.3 686 183C731.7 192.7 777.3 227.3 823 248.2C868.7 269 914.3 276 937.2 279.5L960 283L960 541L937.2 541C914.3 541 868.7 541 823 541C777.3 541 731.7 541 686 541C640.3 541 594.7 541 548.8 541C503 541 457 541 411.2 541C365.3 541 319.7 541 274 541C228.3 541 182.7 541 137 541C91.3 541 45.7 541 22.8 541L0 541Z" fill="#598e50"></path><path d="M0 298L22.8 295.7C45.7 293.3 91.3 288.7 137 276C182.7 263.3 228.3 242.7 274 229.7C319.7 216.7 365.3 211.3 411.2 215.7C457 220 503 234 548.8 248.2C594.7 262.3 640.3 276.7 686 288.8C731.7 301 777.3 311 823 308.5C868.7 306 914.3 291 937.2 283.5L960 276L960 541L937.2 541C914.3 541 868.7 541 823 541C777.3 541 731.7 541 686 541C640.3 541 594.7 541 548.8 541C503 541 457 541 411.2 541C365.3 541 319.7 541 274 541C228.3 541 182.7 541 137 541C91.3 541 45.7 541 22.8 541L0 541Z" fill="#528748"></path><path d="M0 283L22.8 282.7C45.7 282.3 91.3 281.7 137 292.5C182.7 303.3 228.3 325.7 274 328.2C319.7 330.7 365.3 313.3 411.2 315.2C457 317 503 338 548.8 333.5C594.7 329 640.3 299 686 300.7C731.7 302.3 777.3 335.7 823 350.3C868.7 365 914.3 361 937.2 359L960 357L960 541L937.2 541C914.3 541 868.7 541 823 541C777.3 541 731.7 541 686 541C640.3 541 594.7 541 548.8 541C503 541 457 541 411.2 541C365.3 541 319.7 541 274 541C228.3 541 182.7 541 137 541C91.3 541 45.7 541 22.8 541L0 541Z" fill="#4a7f41"></path><path d="M0 406L22.8 393.2C45.7 380.3 91.3 354.7 137 353.8C182.7 353 228.3 377 274 379.8C319.7 382.7 365.3 364.3 411.2 363C457 361.7 503 377.3 548.8 387.7C594.7 398 640.3 403 686 405.5C731.7 408 777.3 408 823 406.5C868.7 405 914.3 402 937.2 400.5L960 399L960 541L937.2 541C914.3 541 868.7 541 823 541C777.3 541 731.7 541 686 541C640.3 541 594.7 541 548.8 541C503 541 457 541 411.2 541C365.3 541 319.7 541 274 541C228.3 541 182.7 541 137 541C91.3 541 45.7 541 22.8 541L0 541Z" fill="#42773a"></path><path d="M0 409L22.8 410.2C45.7 411.3 91.3 413.7 137 416.5C182.7 419.3 228.3 422.7 274 426C319.7 429.3 365.3 432.7 411.2 426.3C457 420 503 404 548.8 405.2C594.7 406.3 640.3 424.7 686 433.3C731.7 442 777.3 441 823 440.5C868.7 440 914.3 440 937.2 440L960 440L960 541L937.2 541C914.3 541 868.7 541 823 541C777.3 541 731.7 541 686 541C640.3 541 594.7 541 548.8 541C503 541 457 541 411.2 541C365.3 541 319.7 541 274 541C228.3 541 182.7 541 137 541C91.3 541 45.7 541 22.8 541L0 541Z" fill="#3b7033"></path><path d="M0 467L22.8 468.2C45.7 469.3 91.3 471.7 137 474.5C182.7 477.3 228.3 480.7 274 484.2C319.7 487.7 365.3 491.3 411.2 488C457 484.7 503 474.3 548.8 474.7C594.7 475 640.3 486 686 481.8C731.7 477.7 777.3 458.3 823 456.7C868.7 455 914.3 471 937.2 479L960 487L960 541L937.2 541C914.3 541 868.7 541 823 541C777.3 541 731.7 541 686 541C640.3 541 594.7 541 548.8 541C503 541 457 541 411.2 541C365.3 541 319.7 541 274 541C228.3 541 182.7 541 137 541C91.3 541 45.7 541 22.8 541L0 541Z" fill="#33682c"></path></svg>