<svg id="visual" viewBox="0 0 960 540" width="960" height="540" xmlns="http://www.w3.org/2000/svg" xmlns:xlink="http://www.w3.org/1999/xlink" version="1.1"><path d="M0 185L40 174.2C80 163.3 160 141.7 240 133.5C320 125.3 400 130.7 480 129.7C560 128.7 640 121.3 720 121.3C800 121.3 880 128.7 920 132.3L960 136L960 0L920 0C880 0 800 0 720 0C640 0 560 0 480 0C400 0 320 0 240 0C160 0 80 0 40 0L0 0Z" fill="#33682c"></path><path d="M0 260L40 250.2C80 240.3 160 220.7 240 209C320 197.3 400 193.7 480 190C560 186.3 640 182.7 720 182.7C800 182.7 880 186.3 920 188.2L960 190L960 134L920 130.3C880 126.7 800 119.3 720 119.3C640 119.3 560 126.7 480 127.7C400 128.7 320 123.3 240 131.5C160 139.7 80 161.3 40 172.2L0 183Z" fill="#3f7336"></path><path d="M0 368L40 358.2C80 348.3 160 328.7 240 314.3C320 300 400 291 480 289.2C560 287.3 640 292.7 720 296.2C800 299.7 880 301.3 920 302.2L960 303L960 188L920 186.2C880 184.3 800 180.7 720 180.7C640 180.7 560 184.3 480 188C400 191.7 320 195.3 240 207C160 218.7 80 238.3 40 248.2L0 258Z" fill="#4a7f41"></path><path d="M0 487L40 483.3C80 479.7 160 472.3 240 465.2C320 458 400 451 480 452.8C560 454.7 640 465.3 720 468.8C800 472.3 880 468.7 920 466.8L960 465L960 301L920 300.2C880 299.3 800 297.7 720 294.2C640 290.7 560 285.3 480 287.2C400 289 320 298 240 312.3C160 326.7 80 346.3 40 356.2L0 366Z" fill="#558a4c"></path><path d="M0 541L40 541C80 541 160 541 240 541C320 541 400 541 480 541C560 541 640 541 720 541C800 541 880 541 920 541L960 541L960 463L920 464.8C880 466.7 800 470.3 720 466.8C640 463.3 560 452.7 480 450.8C400 449 320 456 240 463.2C160 470.3 80 477.7 40 481.3L0 485Z" fill="#619657"></path></svg>