<svg id="visual" viewBox="0 0 900 600" width="900" height="600" xmlns="http://www.w3.org/2000/svg" xmlns:xlink="http://www.w3.org/1999/xlink" version="1.1"><path d="M0 55L16.7 55C33.3 55 66.7 55 100 53C133.3 51 166.7 47 200 44C233.3 41 266.7 39 300 40C333.3 41 366.7 45 400 44C433.3 43 466.7 37 500 36C533.3 35 566.7 39 600 42C633.3 45 666.7 47 700 45C733.3 43 766.7 37 800 37C833.3 37 866.7 43 883.3 46L900 49L900 0L883.3 0C866.7 0 833.3 0 800 0C766.7 0 733.3 0 700 0C666.7 0 633.3 0 600 0C566.7 0 533.3 0 500 0C466.7 0 433.3 0 400 0C366.7 0 333.3 0 300 0C266.7 0 233.3 0 200 0C166.7 0 133.3 0 100 0C66.7 0 33.3 0 16.7 0L0 0Z" fill="#619657"></path><path d="M0 139L16.7 137C33.3 135 66.7 131 100 126C133.3 121 166.7 115 200 119C233.3 123 266.7 137 300 139C333.3 141 366.7 131 400 125C433.3 119 466.7 117 500 118C533.3 119 566.7 123 600 132C633.3 141 666.7 155 700 157C733.3 159 766.7 149 800 139C833.3 129 866.7 119 883.3 114L900 109L900 47L883.3 44C866.7 41 833.3 35 800 35C766.7 35 733.3 41 700 43C666.7 45 633.3 43 600 40C566.7 37 533.3 33 500 34C466.7 35 433.3 41 400 42C366.7 43 333.3 39 300 38C266.7 37 233.3 39 200 42C166.7 45 133.3 49 100 51C66.7 53 33.3 53 16.7 53L0 53Z" fill="#4e8345"></path><path d="M0 187L16.7 187C33.3 187 66.7 187 100 185C133.3 183 166.7 179 200 180C233.3 181 266.7 187 300 184C333.3 181 366.7 169 400 166C433.3 163 466.7 169 500 174C533.3 179 566.7 183 600 188C633.3 193 666.7 199 700 199C733.3 199 766.7 193 800 183C833.3 173 866.7 159 883.3 152L900 145L900 107L883.3 112C866.7 117 833.3 127 800 137C766.7 147 733.3 157 700 155C666.7 153 633.3 139 600 130C566.7 121 533.3 117 500 116C466.7 115 433.3 117 400 123C366.7 129 333.3 139 300 137C266.7 135 233.3 121 200 117C166.7 113 133.3 119 100 124C66.7 129 33.3 133 16.7 135L0 137Z" fill="#3b7033"></path><path d="M0 337L16.7 328C33.3 319 66.7 301 100 302C133.3 303 166.7 323 200 326C233.3 329 266.7 315 300 314C333.3 313 366.7 325 400 335C433.3 345 466.7 353 500 354C533.3 355 566.7 349 600 349C633.3 349 666.7 355 700 359C733.3 363 766.7 365 800 355C833.3 345 866.7 323 883.3 312L900 301L900 143L883.3 150C866.7 157 833.3 171 800 181C766.7 191 733.3 197 700 197C666.7 197 633.3 191 600 186C566.7 181 533.3 177 500 172C466.7 167 433.3 161 400 164C366.7 167 333.3 179 300 182C266.7 185 233.3 179 200 178C166.7 177 133.3 181 100 183C66.7 185 33.3 185 16.7 185L0 185Z" fill="#33682c"></path><path d="M0 475L16.7 473C33.3 471 66.7 467 100 466C133.3 465 166.7 467 200 467C233.3 467 266.7 465 300 470C333.3 475 366.7 487 400 493C433.3 499 466.7 499 500 496C533.3 493 566.7 487 600 486C633.3 485 666.7 489 700 488C733.3 487 766.7 481 800 474C833.3 467 866.7 459 883.3 455L900 451L900 299L883.3 310C866.7 321 833.3 343 800 353C766.7 363 733.3 361 700 357C666.7 353 633.3 347 600 347C566.7 347 533.3 353 500 352C466.7 351 433.3 343 400 333C366.7 323 333.3 311 300 312C266.7 313 233.3 327 200 324C166.7 321 133.3 301 100 300C66.7 299 33.3 317 16.7 326L0 335Z" fill="#3b7033"></path><path d="M0 559L16.7 557C33.3 555 66.7 551 100 550C133.3 549 166.7 551 200 550C233.3 549 266.7 545 300 545C333.3 545 366.7 549 400 552C433.3 555 466.7 557 500 555C533.3 553 566.7 547 600 545C633.3 543 666.7 545 700 548C733.3 551 766.7 555 800 553C833.3 551 866.7 543 883.3 539L900 535L900 449L883.3 453C866.7 457 833.3 465 800 472C766.7 479 733.3 485 700 486C666.7 487 633.3 483 600 484C566.7 485 533.3 491 500 494C466.7 497 433.3 497 400 491C366.7 485 333.3 473 300 468C266.7 463 233.3 465 200 465C166.7 465 133.3 463 100 464C66.7 465 33.3 469 16.7 471L0 473Z" fill="#4e8345"></path><path d="M0 601L16.7 601C33.3 601 66.7 601 100 601C133.3 601 166.7 601 200 601C233.3 601 266.7 601 300 601C333.3 601 366.7 601 400 601C433.3 601 466.7 601 500 601C533.3 601 566.7 601 600 601C633.3 601 666.7 601 700 601C733.3 601 766.7 601 800 601C833.3 601 866.7 601 883.3 601L900 601L900 533L883.3 537C866.7 541 833.3 549 800 551C766.7 553 733.3 549 700 546C666.7 543 633.3 541 600 543C566.7 545 533.3 551 500 553C466.7 555 433.3 553 400 550C366.7 547 333.3 543 300 543C266.7 543 233.3 547 200 548C166.7 549 133.3 547 100 548C66.7 549 33.3 553 16.7 555L0 557Z" fill="#619657"></path></svg>