<svg id="visual" viewBox="0 0 1920 1080" width="1920" height="1080" xmlns="http://www.w3.org/2000/svg" xmlns:xlink="http://www.w3.org/1999/xlink" version="1.1"><path d="M0 814L29.2 810.7C58.3 807.3 116.7 800.7 174.8 788.2C233 775.7 291 757.3 349.2 764.3C407.3 771.3 465.7 803.7 523.8 805.7C582 807.7 640 779.3 698.2 784.8C756.3 790.3 814.7 829.7 872.8 829C931 828.3 989 787.7 1047.2 789.2C1105.3 790.7 1163.7 834.3 1221.8 851.5C1280 868.7 1338 859.3 1396.2 851.8C1454.3 844.3 1512.7 838.7 1570.8 838.8C1629 839 1687 845 1745.2 839.8C1803.3 834.7 1861.7 818.3 1890.8 810.2L1920 802L1920 1081L1890.8 1081C1861.7 1081 1803.3 1081 1745.2 1081C1687 1081 1629 1081 1570.8 1081C1512.7 1081 1454.3 1081 1396.2 1081C1338 1081 1280 1081 1221.8 1081C1163.7 1081 1105.3 1081 1047.2 1081C989 1081 931 1081 872.8 1081C814.7 1081 756.3 1081 698.2 1081C640 1081 582 1081 523.8 1081C465.7 1081 407.3 1081 349.2 1081C291 1081 233 1081 174.8 1081C116.7 1081 58.3 1081 29.2 1081L0 1081Z" fill="#619657"></path><path d="M0 856L29.2 869.7C58.3 883.3 116.7 910.7 174.8 915.8C233 921 291 904 349.2 891.7C407.3 879.3 465.7 871.7 523.8 869.3C582 867 640 870 698.2 879.5C756.3 889 814.7 905 872.8 903C931 901 989 881 1047.2 879C1105.3 877 1163.7 893 1221.8 900.3C1280 907.7 1338 906.3 1396.2 897.3C1454.3 888.3 1512.7 871.7 1570.8 862.8C1629 854 1687 853 1745.2 858.7C1803.3 864.3 1861.7 876.7 1890.8 882.8L1920 889L1920 1081L1890.8 1081C1861.7 1081 1803.3 1081 1745.2 1081C1687 1081 1629 1081 1570.8 1081C1512.7 1081 1454.3 1081 1396.2 1081C1338 1081 1280 1081 1221.8 1081C1163.7 1081 1105.3 1081 1047.2 1081C989 1081 931 1081 872.8 1081C814.7 1081 756.3 1081 698.2 1081C640 1081 582 1081 523.8 1081C465.7 1081 407.3 1081 349.2 1081C291 1081 233 1081 174.8 1081C116.7 1081 58.3 1081 29.2 1081L0 1081Z" fill="#528748"></path><path d="M0 980L29.2 968.3C58.3 956.7 116.7 933.3 174.8 923.5C233 913.7 291 917.3 349.2 922.2C407.3 927 465.7 933 523.8 942.2C582 951.3 640 963.7 698.2 955.2C756.3 946.7 814.7 917.3 872.8 905.3C931 893.3 989 898.7 1047.2 906C1105.3 913.3 1163.7 922.7 1221.8 929C1280 935.3 1338 938.7 1396.2 931C1454.3 923.3 1512.7 904.7 1570.8 897.2C1629 889.7 1687 893.3 1745.2 899.2C1803.3 905 1861.7 913 1890.8 917L1920 921L1920 1081L1890.8 1081C1861.7 1081 1803.3 1081 1745.2 1081C1687 1081 1629 1081 1570.8 1081C1512.7 1081 1454.3 1081 1396.2 1081C1338 1081 1280 1081 1221.8 1081C1163.7 1081 1105.3 1081 1047.2 1081C989 1081 931 1081 872.8 1081C814.7 1081 756.3 1081 698.2 1081C640 1081 582 1081 523.8 1081C465.7 1081 407.3 1081 349.2 1081C291 1081 233 1081 174.8 1081C116.7 1081 58.3 1081 29.2 1081L0 1081Z" fill="#42773a"></path><path d="M0 999L29.2 993.2C58.3 987.3 116.7 975.7 174.8 971.2C233 966.7 291 969.3 349.2 976.7C407.3 984 465.7 996 523.8 1000C582 1004 640 1000 698.2 1000.5C756.3 1001 814.7 1006 872.8 1008.8C931 1011.7 989 1012.3 1047.2 1016C1105.3 1019.7 1163.7 1026.3 1221.8 1017.5C1280 1008.7 1338 984.3 1396.2 979.7C1454.3 975 1512.7 990 1570.8 998.7C1629 1007.3 1687 1009.7 1745.2 1010.3C1803.3 1011 1861.7 1010 1890.8 1009.5L1920 1009L1920 1081L1890.8 1081C1861.7 1081 1803.3 1081 1745.2 1081C1687 1081 1629 1081 1570.8 1081C1512.7 1081 1454.3 1081 1396.2 1081C1338 1081 1280 1081 1221.8 1081C1163.7 1081 1105.3 1081 1047.2 1081C989 1081 931 1081 872.8 1081C814.7 1081 756.3 1081 698.2 1081C640 1081 582 1081 523.8 1081C465.7 1081 407.3 1081 349.2 1081C291 1081 233 1081 174.8 1081C116.7 1081 58.3 1081 29.2 1081L0 1081Z" fill="#33682c"></path></svg>