<svg id="visual" viewBox="0 0 1920 1080" width="1920" height="1080" xmlns="http://www.w3.org/2000/svg" xmlns:xlink="http://www.w3.org/1999/xlink" version="1.1"><path d="M0 77L45.7 80.5C91.3 84 182.7 91 274.2 92.7C365.7 94.3 457.3 90.7 548.8 87.2C640.3 83.7 731.7 80.3 823 78.7C914.3 77 1005.7 77 1097 75.2C1188.3 73.3 1279.7 69.7 1371.2 73.2C1462.7 76.7 1554.3 87.3 1645.8 89.2C1737.3 91 1828.7 84 1874.3 80.5L1920 77L1920 0L1874.3 0C1828.7 0 1737.3 0 1645.8 0C1554.3 0 1462.7 0 1371.2 0C1279.7 0 1188.3 0 1097 0C1005.7 0 914.3 0 823 0C731.7 0 640.3 0 548.8 0C457.3 0 365.7 0 274.2 0C182.7 0 91.3 0 45.7 0L0 0Z" fill="#619657"></path><path d="M0 228L45.7 228C91.3 228 182.7 228 274.2 228C365.7 228 457.3 228 548.8 224.3C640.3 220.7 731.7 213.3 823 209.7C914.3 206 1005.7 206 1097 200.7C1188.3 195.3 1279.7 184.7 1371.2 182.8C1462.7 181 1554.3 188 1645.8 191.5C1737.3 195 1828.7 195 1874.3 195L1920 195L1920 75L1874.3 78.5C1828.7 82 1737.3 89 1645.8 87.2C1554.3 85.3 1462.7 74.7 1371.2 71.2C1279.7 67.7 1188.3 71.3 1097 73.2C1005.7 75 914.3 75 823 76.7C731.7 78.3 640.3 81.7 548.8 85.2C457.3 88.7 365.7 92.3 274.2 90.7C182.7 89 91.3 82 45.7 78.5L0 75Z" fill="#a2c19a"></path><path d="M0 444L45.7 462C91.3 480 182.7 516 274.2 525C365.7 534 457.3 516 548.8 487.2C640.3 458.3 731.7 418.7 823 411.5C914.3 404.3 1005.7 429.7 1097 449.5C1188.3 469.3 1279.7 483.7 1371.2 487.2C1462.7 490.7 1554.3 483.3 1645.8 481.5C1737.3 479.7 1828.7 483.3 1874.3 485.2L1920 487L1920 193L1874.3 193C1828.7 193 1737.3 193 1645.8 189.5C1554.3 186 1462.7 179 1371.2 180.8C1279.7 182.7 1188.3 193.3 1097 198.7C1005.7 204 914.3 204 823 207.7C731.7 211.3 640.3 218.7 548.8 222.3C457.3 226 365.7 226 274.2 226C182.7 226 91.3 226 45.7 226L0 226Z" fill="#e4ede1"></path><path d="M0 735L45.7 736.8C91.3 738.7 182.7 742.3 274.2 758.7C365.7 775 457.3 804 548.8 798.7C640.3 793.3 731.7 753.7 823 737.3C914.3 721 1005.7 728 1097 724.3C1188.3 720.7 1279.7 706.3 1371.2 711.8C1462.7 717.3 1554.3 742.7 1645.8 744.5C1737.3 746.3 1828.7 724.7 1874.3 713.8L1920 703L1920 485L1874.3 483.2C1828.7 481.3 1737.3 477.7 1645.8 479.5C1554.3 481.3 1462.7 488.7 1371.2 485.2C1279.7 481.7 1188.3 467.3 1097 447.5C1005.7 427.7 914.3 402.3 823 409.5C731.7 416.7 640.3 456.3 548.8 485.2C457.3 514 365.7 532 274.2 523C182.7 514 91.3 478 45.7 460L0 442Z" fill="#ffffff"></path><path d="M0 865L45.7 875.8C91.3 886.7 182.7 908.3 274.2 922.7C365.7 937 457.3 944 548.8 935C640.3 926 731.7 901 823 888.5C914.3 876 1005.7 876 1097 872.3C1188.3 868.7 1279.7 861.3 1371.2 868.5C1462.7 875.7 1554.3 897.3 1645.8 906.3C1737.3 915.3 1828.7 911.7 1874.3 909.8L1920 908L1920 701L1874.3 711.8C1828.7 722.7 1737.3 744.3 1645.8 742.5C1554.3 740.7 1462.7 715.3 1371.2 709.8C1279.7 704.3 1188.3 718.7 1097 722.3C1005.7 726 914.3 719 823 735.3C731.7 751.7 640.3 791.3 548.8 796.7C457.3 802 365.7 773 274.2 756.7C182.7 740.3 91.3 736.7 45.7 734.8L0 733Z" fill="#e4ede1"></path><path d="M0 995L45.7 1000.3C91.3 1005.7 182.7 1016.3 274.2 1021.7C365.7 1027 457.3 1027 548.8 1023.3C640.3 1019.7 731.7 1012.3 823 1007C914.3 1001.7 1005.7 998.3 1097 994.8C1188.3 991.3 1279.7 987.7 1371.2 989.3C1462.7 991 1554.3 998 1645.8 999.8C1737.3 1001.7 1828.7 998.3 1874.3 996.7L1920 995L1920 906L1874.3 907.8C1828.7 909.7 1737.3 913.3 1645.8 904.3C1554.3 895.3 1462.7 873.7 1371.2 866.5C1279.7 859.3 1188.3 866.7 1097 870.3C1005.7 874 914.3 874 823 886.5C731.7 899 640.3 924 548.8 933C457.3 942 365.7 935 274.2 920.7C182.7 906.3 91.3 884.7 45.7 873.8L0 863Z" fill="#a2c19a"></path><path d="M0 1081L45.7 1081C91.3 1081 182.7 1081 274.2 1081C365.7 1081 457.3 1081 548.8 1081C640.3 1081 731.7 1081 823 1081C914.3 1081 1005.7 1081 1097 1081C1188.3 1081 1279.7 1081 1371.2 1081C1462.7 1081 1554.3 1081 1645.8 1081C1737.3 1081 1828.7 1081 1874.3 1081L1920 1081L1920 993L1874.3 994.7C1828.7 996.3 1737.3 999.7 1645.8 997.8C1554.3 996 1462.7 989 1371.2 987.3C1279.7 985.7 1188.3 989.3 1097 992.8C1005.7 996.3 914.3 999.7 823 1005C731.7 1010.3 640.3 1017.7 548.8 1021.3C457.3 1025 365.7 1025 274.2 1019.7C182.7 1014.3 91.3 1003.7 45.7 998.3L0 993Z" fill="#619657"></path></svg>