<svg id="visual" viewBox="0 0 1920 1080" width="1920" height="1080" xmlns="http://www.w3.org/2000/svg" xmlns:xlink="http://www.w3.org/1999/xlink" version="1.1"><path d="M0 131L80 127.3C160 123.7 320 116.3 480 110.8C640 105.3 800 101.7 960 98C1120 94.3 1280 90.7 1440 88.8C1600 87 1760 87 1840 87L1920 87L1920 0L1840 0C1760 0 1600 0 1440 0C1280 0 1120 0 960 0C800 0 640 0 480 0C320 0 160 0 80 0L0 0Z" fill="#ffffff"></path><path d="M0 206L80 202.5C160 199 320 192 480 183C640 174 800 163 960 157.5C1120 152 1280 152 1440 152C1600 152 1760 152 1840 152L1920 152L1920 85L1840 85C1760 85 1600 85 1440 86.8C1280 88.7 1120 92.3 960 96C800 99.7 640 103.3 480 108.8C320 114.3 160 121.7 80 125.3L0 129Z" fill="#bdceb8"></path><path d="M0 314L80 306.8C160 299.7 320 285.3 480 276.3C640 267.3 800 263.7 960 254.7C1120 245.7 1280 231.3 1440 226C1600 220.7 1760 224.3 1840 226.2L1920 228L1920 150L1840 150C1760 150 1600 150 1440 150C1280 150 1120 150 960 155.5C800 161 640 172 480 181C320 190 160 197 80 200.5L0 204Z" fill="#7e9e76"></path><path d="M0 530L80 542.7C160 555.3 320 580.7 480 580.7C640 580.7 800 555.3 960 526.5C1120 497.7 1280 465.3 1440 470.8C1600 476.3 1760 519.7 1840 541.3L1920 563L1920 226L1840 224.2C1760 222.3 1600 218.7 1440 224C1280 229.3 1120 243.7 960 252.7C800 261.7 640 265.3 480 274.3C320 283.3 160 297.7 80 304.8L0 312Z" fill="#407138"></path><path d="M0 746L80 755C160 764 320 782 480 785.7C640 789.3 800 778.7 960 757.2C1120 735.7 1280 703.3 1440 703.3C1600 703.3 1760 735.7 1840 751.8L1920 768L1920 561L1840 539.3C1760 517.7 1600 474.3 1440 468.8C1280 463.3 1120 495.7 960 524.5C800 553.3 640 578.7 480 578.7C320 578.7 160 553.3 80 540.7L0 528Z" fill="#33682c"></path><path d="M0 822L80 827.3C160 832.7 320 843.3 480 845.2C640 847 800 840 960 822C1120 804 1280 775 1440 776.7C1600 778.3 1760 810.7 1840 826.8L1920 843L1920 766L1840 749.8C1760 733.7 1600 701.3 1440 701.3C1280 701.3 1120 733.7 960 755.2C800 776.7 640 787.3 480 783.7C320 780 160 762 80 753L0 744Z" fill="#407138"></path><path d="M0 908L80 908C160 908 320 908 480 908C640 908 800 908 960 893.7C1120 879.3 1280 850.7 1440 850.7C1600 850.7 1760 879.3 1840 893.7L1920 908L1920 841L1840 824.8C1760 808.7 1600 776.3 1440 774.7C1280 773 1120 802 960 820C800 838 640 845 480 843.2C320 841.3 160 830.7 80 825.3L0 820Z" fill="#7e9e76"></path><path d="M0 1038L80 1038C160 1038 320 1038 480 1032.5C640 1027 800 1016 960 1012.3C1120 1008.7 1280 1012.3 1440 1014.2C1600 1016 1760 1016 1840 1016L1920 1016L1920 906L1840 891.7C1760 877.3 1600 848.7 1440 848.7C1280 848.7 1120 877.3 960 891.7C800 906 640 906 480 906C320 906 160 906 80 906L0 906Z" fill="#bdceb8"></path><path d="M0 1081L80 1081C160 1081 320 1081 480 1081C640 1081 800 1081 960 1081C1120 1081 1280 1081 1440 1081C1600 1081 1760 1081 1840 1081L1920 1081L1920 1014L1840 1014C1760 1014 1600 1014 1440 1012.2C1280 1010.3 1120 1006.7 960 1010.3C800 1014 640 1025 480 1030.5C320 1036 160 1036 80 1036L0 1036Z" fill="#ffffff"></path></svg>